<svg width="17" height="16" viewBox="0 0 17 16" fill="none" xmlns="http://www.w3.org/2000/svg">
<path d="M8.33325 8C7.23325 8 6.29159 7.60833 5.50825 6.825C4.72492 6.04167 4.33325 5.1 4.33325 4C4.33325 2.9 4.72492 1.95833 5.50825 1.175C6.29159 0.391667 7.23325 0 8.33325 0C9.43325 0 10.3749 0.391667 11.1583 1.175C11.9416 1.95833 12.3333 2.9 12.3333 4C12.3333 5.1 11.9416 6.04167 11.1583 6.825C10.3749 7.60833 9.43325 8 8.33325 8ZM0.333252 16V13.2C0.333252 12.6333 0.479085 12.1125 0.770752 11.6375C1.06242 11.1625 1.44992 10.8 1.93325 10.55C2.96659 10.0333 4.01659 9.64583 5.08325 9.3875C6.14992 9.12917 7.23325 9 8.33325 9C9.43325 9 10.5166 9.12917 11.5833 9.3875C12.6499 9.64583 13.6999 10.0333 14.7333 10.55C15.2166 10.8 15.6041 11.1625 15.8958 11.6375C16.1874 12.1125 16.3333 12.6333 16.3333 13.2V16H0.333252ZM2.33325 14H14.3333V13.2C14.3333 13.0167 14.2874 12.85 14.1958 12.7C14.1041 12.55 13.9833 12.4333 13.8333 12.35C12.9333 11.9 12.0249 11.5625 11.1083 11.3375C10.1916 11.1125 9.26659 11 8.33325 11C7.39992 11 6.47492 11.1125 5.55825 11.3375C4.64159 11.5625 3.73325 11.9 2.83325 12.35C2.68325 12.4333 2.56242 12.55 2.47075 12.7C2.37909 12.85 2.33325 13.0167 2.33325 13.2V14ZM8.33325 6C8.88325 6 9.35408 5.80417 9.74575 5.4125C10.1374 5.02083 10.3333 4.55 10.3333 4C10.3333 3.45 10.1374 2.97917 9.74575 2.5875C9.35408 2.19583 8.88325 2 8.33325 2C7.78325 2 7.31242 2.19583 6.92075 2.5875C6.52909 2.97917 6.33325 3.45 6.33325 4C6.33325 4.55 6.52909 5.02083 6.92075 5.4125C7.31242 5.80417 7.78325 6 8.33325 6Z" fill="#626F86"/>
</svg>
