<svg width="19" height="20" viewBox="0 0 19 20" fill="none" xmlns="http://www.w3.org/2000/svg">
<path d="M3.66675 20C2.83341 20 2.12508 19.7083 1.54175 19.125C0.958415 18.5417 0.666748 17.8333 0.666748 17V3C0.666748 2.16667 0.958415 1.45833 1.54175 0.875C2.12508 0.291667 2.83341 0 3.66675 0H14.6667V16H3.66675C3.38341 16 3.14591 16.0958 2.95425 16.2875C2.76258 16.4792 2.66675 16.7167 2.66675 17C2.66675 17.2833 2.76258 17.5208 2.95425 17.7125C3.14591 17.9042 3.38341 18 3.66675 18H16.6667V2H18.6667V20H3.66675ZM6.66675 14H12.6667V2H6.66675V14ZM4.66675 14V2H3.66675C3.38341 2 3.14591 2.09583 2.95425 2.2875C2.76258 2.47917 2.66675 2.71667 2.66675 3V14.175C2.83341 14.125 2.99591 14.0833 3.15425 14.05C3.31258 14.0167 3.48341 14 3.66675 14H4.66675Z" fill="#626F86"/>
</svg>
